<svg width="66" height="52" viewBox="0 0 66 52" fill="none" xmlns="http://www.w3.org/2000/svg">
<path d="M5.19999 2.29996C-0.100007 7.99996 -1.30001 16.6 2.19999 24C3.89999 27.6 4.39999 30.9 4.79999 40.2L5.19999 52H9.09999H13V41.7C13 28.2 13.7 27.3 19.4 32.9C21.8 35.3 25 39.5 26.5 42.4C31.8 52.1 31.5 52 46.9 52C61.5 52 65.3 51 65.8 47.3C66.2 44.6 60.2 37.7 56 36C53.6 35 52.1 35 48.5 36C41.7 37.9 39.3 36.4 31.9 25.7C25.5 16.4 10.6 -4.34995e-05 8.49999 -4.34995e-05C7.89999 -4.34995e-05 6.39999 0.99996 5.19999 2.29996ZM18 11.7C20.2 14.3 25.2 20.8 29 26.1C32.9 31.5 37 36.6 38.2 37.5C40.8 39.2 47.2 39.5 50.1 37.9C54.3 35.7 65.3 45.1 62.2 48.2C60.8 49.6 39.9 50.7 35.6 49.6C33.8 49.2 32.1 47.1 29.8 42.7C25.8 35 15.2 24.1 8.29999 20.7C5.49999 19.2 2.89999 17.6 2.49999 17C1.59999 15.5 3.69999 8.59996 6.09999 5.59996L8.19999 2.99996L11 4.99996C12.6 6.09996 15.7 9.09996 18 11.7ZM11.4 29.9C10.7 31.9 10.1 37.2 9.99999 41.8C9.99999 48 9.69999 50.1 8.79999 49.8C7.89999 49.5 7.29999 45.8 6.99999 37.9C6.69999 31.6 5.89999 25.5 5.19999 24.3C3.29999 20.9 3.69999 20.9 8.29999 23.7L12.7 26.3L11.4 29.9Z" fill="#790E30"/>
<path d="M36 46C36 46.6 39.5 47 44.5 47C49.5 47 53 46.6 53 46C53 45.4 49.5 45 44.5 45C39.5 45 36 45.4 36 46Z" fill="#790E30"/>
<path d="M56 46C56 46.5 56.5 47 57 47C57.6 47 58 46.5 58 46C58 45.4 57.6 45 57 45C56.5 45 56 45.4 56 46Z" fill="#790E30"/>
</svg>
