<svg width="39" height="41" viewBox="0 0 39 41" fill="none" xmlns="http://www.w3.org/2000/svg">
<g clip-path="url(#clip0)">
<path d="M36.4409 22.8605C36.4409 20.884 34.9153 19.2761 33.0401 19.2761H27.9894C28.6152 17.4929 29.0032 15.3748 29.2301 13.7704C29.4592 12.1507 29.0095 10.5112 27.9962 9.27214C26.986 8.03672 25.519 7.32812 23.9715 7.32812C23.3454 7.32812 22.8379 7.86308 22.8379 8.52292C22.8379 11.4093 21.2641 15.7667 19.4275 16.7372C17.3601 17.8295 13.2931 19.04 12.4831 19.2761C11.9773 19.2761 1.63752 19.2761 1.14872 19.2761C0.52268 19.2761 0.0151367 19.811 0.0151367 20.4709V37.198C0.0150612 37.8579 0.522605 38.3928 1.14865 38.3928H4.5494V39.5876C4.5494 40.2475 5.05694 40.7824 5.68298 40.7824H10.3685C11.753 40.7824 12.9461 39.9054 13.4761 38.6511L21.4294 40.7467C21.5193 40.7704 21.6117 40.7824 21.7043 40.7824H28.5058C30.381 40.7824 31.9066 39.1745 31.9066 37.198C31.9066 36.7319 31.8217 36.2863 31.6675 35.8775C33.11 35.4625 34.1737 34.0691 34.1737 32.4189C34.1737 31.9527 34.0889 31.5071 33.9346 31.0983C35.3771 30.6833 36.4409 29.2899 36.4409 27.6397C36.4409 26.7225 36.1124 25.8847 35.5729 25.2501C36.1124 24.6155 36.4409 23.7777 36.4409 22.8605ZM4.54932 36.0032H2.28215V21.6657H4.54932V36.0032ZM11.502 37.198C11.502 37.8569 10.9934 38.3928 10.3684 38.3928H6.81649V21.6657H11.502V37.198ZM26.2386 26.4449H33.0401C33.6652 26.4449 34.1737 26.9809 34.1737 27.6397C34.1737 28.2985 33.6652 28.8345 33.0401 28.8345C32.1854 28.8345 26.9372 28.8345 26.2386 28.8345C25.6126 28.8345 25.1051 29.3694 25.1051 30.0293C25.1051 30.6891 25.6126 31.2241 26.2386 31.2241H30.773C31.398 31.2241 31.9066 31.76 31.9066 32.4189C31.9066 33.0777 31.398 33.6137 30.773 33.6137C30.2924 33.6137 26.7192 33.6137 26.2386 33.6137C25.6126 33.6137 25.1051 34.1486 25.1051 34.8084C25.1051 35.4683 25.6126 36.0032 26.2386 36.0032H28.5058C29.1309 36.0032 29.6394 36.5392 29.6394 37.198C29.6394 37.8569 29.1309 38.3928 28.5058 38.3928H21.8439L13.7692 36.2652V21.377C15.2986 20.9142 18.5427 19.8778 20.4435 18.8734C23.0469 17.4978 24.6411 13.1465 25.0182 9.91295C25.5005 10.0989 25.9358 10.4125 26.2791 10.8323C26.8613 11.5442 27.1196 12.4866 26.9878 13.418C26.4509 17.2138 25.7773 18.7719 25.2248 19.9365C25.0491 20.3069 25.0678 20.7467 25.2743 21.099C25.4809 21.4512 25.8457 21.6657 26.2386 21.6657H33.0401C33.6652 21.6657 34.1737 22.2017 34.1737 22.8605C34.1737 23.5193 33.6652 24.0553 33.0401 24.0553H26.2386C25.6126 24.0553 25.1051 24.5902 25.1051 25.2501C25.1051 25.9099 25.6126 26.4449 26.2386 26.4449Z" fill="#8A1E3F"/>
<path d="M25.105 0C24.479 0 23.9714 0.53495 23.9714 1.1948V3.7437C23.9714 4.40354 24.479 4.93849 25.105 4.93849C25.7311 4.93849 26.2386 4.40354 26.2386 3.7437V1.1948C26.2386 0.53495 25.7311 0 25.105 0Z" fill="#783750"/>
<path d="M18.6926 6.04843L17.0894 4.35875C16.6468 3.89214 15.929 3.89214 15.4863 4.35875C15.0436 4.82535 15.0436 5.58182 15.4863 6.04843L17.0894 7.73811C17.5321 8.20472 18.2499 8.20472 18.6926 7.73811C19.1353 7.2715 19.1353 6.51504 18.6926 6.04843Z" fill="#8A1E3F"/>
<path d="M14.9027 13.3022H12.6355C12.0095 13.3022 11.502 13.8372 11.502 14.497C11.502 15.1569 12.0095 15.6918 12.6355 15.6918H14.9027C15.5287 15.6918 16.0363 15.1569 16.0363 14.497C16.0363 13.8372 15.5287 13.3022 14.9027 13.3022Z" fill="#8A1E3F"/>
<path d="M37.5746 13.3022H35.3074C34.6814 13.3022 34.1738 13.8372 34.1738 14.497C34.1738 15.1569 34.6814 15.6918 35.3074 15.6918H37.5746C38.2006 15.6918 38.7082 15.1569 38.7082 14.497C38.7082 13.8372 38.2006 13.3022 37.5746 13.3022Z" fill="#8A1E3F"/>
<path d="M34.7241 4.35875C34.2814 3.89214 33.5636 3.89214 33.1209 4.35875L31.5178 6.04843C31.0751 6.51504 31.0751 7.2715 31.5178 7.73811C31.9604 8.20472 32.6783 8.20472 33.1209 7.73811L34.7241 6.04843C35.1668 5.58182 35.1668 4.82535 34.7241 4.35875Z" fill="#8A1E3F"/>
</g>
<defs>
<clipPath id="clip0">
<rect width="38.693" height="40.7824" fill="white" transform="translate(0.0151367)"/>
</clipPath>
</defs>
</svg>
