<svg width="40" height="38" viewBox="0 0 40 38" fill="none" xmlns="http://www.w3.org/2000/svg">
<path d="M24.2677 6.72615C26.0947 8.02381 27.3759 10.2197 27.6091 12.7687C28.3543 13.1631 29.1812 13.3899 30.058 13.3899C33.2589 13.3899 35.8533 10.451 35.8533 6.82558C35.8533 3.19962 33.2589 0.260742 30.058 0.260742C26.8877 0.261859 24.316 3.14822 24.2677 6.72615ZM20.4711 20.1675C23.672 20.1675 26.2663 17.2281 26.2663 13.6027C26.2663 9.97729 23.6715 7.03842 20.4711 7.03842C17.2707 7.03842 14.6748 9.97785 14.6748 13.6033C14.6748 17.2287 17.2707 20.1675 20.4711 20.1675ZM22.9293 20.615H18.0118C13.9203 20.615 10.5917 24.3862 10.5917 29.021V35.8333L10.607 35.94L11.0212 36.087C14.9258 37.469 18.3181 37.9298 21.1102 37.9298C26.5637 37.9298 29.7247 36.1685 29.9194 36.0562L30.3066 35.8345H30.348V29.021C30.3495 24.3862 27.0208 20.615 22.9293 20.615ZM32.5173 13.8379H27.6377C27.585 16.0494 26.7516 18.0409 25.4334 19.4732C29.0703 20.6982 31.7312 24.5186 31.7312 29.0311V31.1304C36.5491 30.9304 39.3254 29.3836 39.5084 29.2797L39.8955 29.0573H39.9369V22.2428C39.9369 17.6085 36.6083 13.8379 32.5173 13.8379ZM10.3022 13.391C11.4359 13.391 12.4907 13.0162 13.3843 12.3777C13.6683 10.2789 14.6615 8.44501 16.0802 7.19595C16.0862 7.07305 16.0965 6.95127 16.0965 6.82726C16.0965 3.20129 13.5017 0.262418 10.3022 0.262418C7.10083 0.262418 4.50696 3.20129 4.50696 6.82726C4.50696 10.4516 7.10083 13.391 10.3022 13.391ZM15.5067 19.4732C14.195 18.0482 13.3646 16.0673 13.3039 13.8692C13.1229 13.8541 12.9439 13.8379 12.7595 13.8379H7.8425C3.75099 13.8379 0.422363 17.6085 0.422363 22.2428V29.0562L0.43765 29.1612L0.85188 29.3093C3.98424 30.417 6.7798 30.9276 9.20797 31.0885V29.0311C9.20896 24.5186 11.8689 20.6993 15.5067 19.4732Z" fill="#8A1E3F"/>
</svg>
