<svg width="38" height="36" viewBox="0 0 38 36" fill="none" xmlns="http://www.w3.org/2000/svg">
<g clip-path="url(#clip0)">
<path d="M31.7905 22.4497C33.3783 20.1651 34.304 17.4326 34.304 14.4984C34.304 6.50391 27.4385 0 18.9999 0C10.5613 0 3.69606 6.50391 3.69606 14.4984C3.69606 17.4326 4.62176 20.1651 6.20935 22.4497L0.223145 30.7205L7.07301 29.5107L8.35039 36L13.9957 28.2C15.5647 28.7158 17.2482 28.9968 18.9999 28.9968C20.7519 28.9968 22.4354 28.7158 24.0042 28.2L29.6497 36L30.9268 29.5107L37.7767 30.7205L31.7905 22.4497ZM9.56079 30.5755L8.86412 27.0357L5.12796 27.696L7.64908 24.2125C8.85658 25.4776 10.296 26.5399 11.9027 27.3403L9.56079 30.5755ZM5.93567 14.4984C5.93567 7.67395 11.7963 2.12173 18.9999 2.12173C26.2038 2.12173 32.0644 7.67395 32.0644 14.4984C32.0644 21.3231 26.2038 26.8753 18.9999 26.8753C11.7963 26.8753 5.93567 21.3231 5.93567 14.4984ZM29.1357 27.0357L28.439 30.5755L26.0974 27.3403C27.7041 26.5399 29.1435 25.4776 30.351 24.2125L32.8721 27.6957L29.1357 27.0357Z" fill="#8A1E3F"/>
<path d="M16.2713 17.6825L12.6299 14.233L11.0464 15.7332L16.2713 20.6831L26.9527 10.5641L25.3692 9.06396L16.2713 17.6825Z" fill="#8A1E3F"/>
</g>
<defs>
<clipPath id="clip0">
<rect width="38" height="36" fill="white"/>
</clipPath>
</defs>
</svg>
