<svg width="20" height="20" viewBox="0 0 30 30" fill="none" xmlns="http://www.w3.org/2000/svg">
<path d="M21.7208 0H8.27869C3.71382 0 0 3.714 0 8.27887V21.721C0 26.286 3.71382 29.9998 8.27869 29.9998H21.7208C26.286 29.9998 29.9998 26.2858 29.9998 21.721V8.27887C30 3.714 26.286 0 21.7208 0ZM27.3383 21.721C27.3383 24.8183 24.8183 27.3381 21.721 27.3381H8.27869C5.1815 27.3383 2.66173 24.8183 2.66173 21.721V8.27887C2.66173 5.18168 5.1815 2.66173 8.27869 2.66173H21.7208C24.8181 2.66173 27.3381 5.18168 27.3381 8.27887V21.721H27.3383Z" fill="#8A1E3F"/>
<path d="M14.9999 7.27002C10.7374 7.27002 7.26971 10.7377 7.26971 15.0002C7.26971 19.2625 10.7374 22.7301 14.9999 22.7301C19.2624 22.7301 22.7301 19.2625 22.7301 15.0002C22.7301 10.7377 19.2624 7.27002 14.9999 7.27002ZM14.9999 20.0681C12.2053 20.0681 9.93144 17.7947 9.93144 15C9.93144 12.2052 12.2051 9.93157 14.9999 9.93157C17.7947 9.93157 20.0684 12.2052 20.0684 15C20.0684 17.7947 17.7945 20.0681 14.9999 20.0681Z" fill="#8A1E3F"/>
<path d="M23.0543 5.01306C22.5415 5.01306 22.0377 5.22068 21.6755 5.58445C21.3116 5.94644 21.1024 6.4504 21.1024 6.965C21.1024 7.478 21.3118 7.98178 21.6755 8.34555C22.0375 8.70754 22.5415 8.91693 23.0543 8.91693C23.5689 8.91693 24.0711 8.70754 24.4349 8.34555C24.7986 7.98178 25.0062 7.47782 25.0062 6.965C25.0062 6.4504 24.7986 5.94644 24.4349 5.58445C24.0729 5.22068 23.5689 5.01306 23.0543 5.01306Z" fill="#8A1E3F"/>
</svg>
