<svg width="52" height="52" viewBox="0 0 52 52" fill="none" xmlns="http://www.w3.org/2000/svg">
<g clip-path="url(#clip0)">
<path d="M13.78 47.6299L36.526 25.7502L14.6441 3.00631C14.25 2.58228 14.2745 1.91909 14.6986 1.52505C15.1123 1.14074 15.7561 1.15321 16.1544 1.55324L38.7618 25.0534C39.1629 25.4705 39.1501 26.1337 38.7331 26.5351L15.233 49.1424C14.8228 49.5509 14.1592 49.5495 13.7507 49.1395C13.3422 48.7292 13.3436 48.0659 13.7537 47.6571C13.7623 47.6486 13.771 47.6402 13.7798 47.632L13.78 47.6299Z" fill="#783750"/>
<path d="M39.056 25.7994C39.0619 25.5212 38.9571 25.2521 38.7644 25.0514L16.1571 1.55134C15.7486 1.14119 15.085 1.13993 14.6748 1.54839C14.2748 1.94692 14.2623 2.59069 14.6466 3.00432L36.5264 25.7502L13.7804 47.6299C13.3564 48.024 13.3321 48.6871 13.726 49.1112C14.12 49.5353 14.7832 49.5596 15.2073 49.1656C15.2162 49.1574 15.2248 49.149 15.2336 49.1405L38.7336 26.5331C38.9341 26.3408 39.05 26.0769 39.056 25.7994Z" fill="#783750"/>
</g>
<defs>
<clipPath id="clip0">
<rect width="50" height="50" fill="white" transform="translate(51.0455 1.12979) rotate(90.1552)"/>
</clipPath>
</defs>
</svg>
