<svg width="51" height="51" viewBox="0 0 51 51" fill="none" xmlns="http://www.w3.org/2000/svg">
<g clip-path="url(#clip0)">
<path d="M37.8301 1.90394L14.6558 25.0166L37.7707 48.1889C38.1872 48.6211 38.1743 49.3092 37.742 49.7257C37.3202 50.132 36.6525 50.1312 36.2319 49.7238L12.3505 25.7811C11.9268 25.3563 11.9277 24.6681 12.3525 24.2442L36.2953 0.362901C36.7129 -0.0683032 37.4009 -0.079341 37.8322 0.338178C38.2634 0.755801 38.2745 1.44383 37.857 1.87514C37.8482 1.88419 37.8393 1.89304 37.8302 1.90179L37.8301 1.90394Z" fill="#783750"/>
<path d="M12.0321 25.0124C12.0312 25.3009 12.1449 25.5779 12.3485 25.7822L36.2297 49.7249C36.661 50.1427 37.3491 50.1316 37.7667 49.7002C38.174 49.2795 38.1749 48.6119 37.7686 48.1902L14.656 25.0157L37.8302 1.90305C38.2625 1.48654 38.2753 0.798538 37.8589 0.36616C37.4424 -0.0661151 36.7544 -0.0789202 36.322 0.33749C36.3129 0.346241 36.3041 0.355095 36.2953 0.364152L12.3525 24.2454C12.1484 24.4484 12.033 24.7244 12.0321 25.0124Z" fill="#783750"/>
</g>
<defs>
<clipPath id="clip0">
<rect width="50" height="50" fill="white" transform="translate(50.0641 0.064209) rotate(90.0736)"/>
</clipPath>
</defs>
</svg>
