<svg width="62" height="62" viewBox="0 0 62 62" fill="none" xmlns="http://www.w3.org/2000/svg">
<path d="M32.1236 0H15.317C14.6705 0 14.1458 0.524776 14.1458 1.17123V60.8083C14.1458 61.4548 14.6705 61.9796 15.317 61.9796H32.1236C32.7701 61.9796 33.2948 61.4548 33.2948 60.8083V1.17123C33.2948 0.524776 32.7701 0 32.1236 0ZM30.9524 7.9055H28.0596C27.4132 7.9055 26.8884 8.43028 26.8884 9.07674C26.8884 9.72319 27.4132 10.248 28.0596 10.248H30.9524V14.1597H28.0596C27.4132 14.1597 26.8884 14.6845 26.8884 15.331C26.8884 15.9774 27.4132 16.5022 28.0596 16.5022H30.9524V20.4491H25.4245C24.778 20.4491 24.2532 20.9739 24.2532 21.6203C24.2532 22.2668 24.778 22.7916 25.4245 22.7916H30.9524V26.7033H28.0596C27.4132 26.7033 26.8884 27.2281 26.8884 27.8746C26.8884 28.521 27.4132 29.0458 28.0596 29.0458H30.9524V32.9693H28.0596C27.4132 32.9693 26.8884 33.4941 26.8884 34.1405C26.8884 34.787 27.4132 35.3118 28.0596 35.3118H30.9524V39.1884H25.4245C24.778 39.1884 24.2532 39.7132 24.2532 40.3596C24.2532 41.0061 24.778 41.5309 25.4245 41.5309H30.9524V45.4426H28.0596C27.4132 45.4426 26.8884 45.9674 26.8884 46.6139C26.8884 47.2603 27.4132 47.7851 28.0596 47.7851H30.9524V51.6969H28.0596C27.4132 51.6969 26.8884 52.2217 26.8884 52.8681C26.8884 53.5146 27.4132 54.0393 28.0596 54.0393H30.9524V59.6024H16.4882V2.34246H30.9524V7.9055Z" fill="#790E30"/>
<path d="M46.6813 11.4895C47.3278 11.4895 47.8526 10.9647 47.8526 10.3183C47.8526 10.0393 47.7531 9.7688 47.5716 9.5568L43.9525 3.25573C43.628 2.69625 42.9113 2.50641 42.3518 2.83089C42.1745 2.9325 42.0282 3.08011 41.9266 3.25573L38.1904 9.73284C37.8672 10.2923 38.0591 11.0094 38.619 11.3323C38.7984 11.4355 39.0021 11.4907 39.2095 11.4895H41.7744V50.4901H39.2095C38.563 50.4876 38.0357 51.0103 38.0336 51.6568C38.0324 51.8642 38.0871 52.0678 38.1904 52.2468L41.9266 58.7239C42.2511 59.2834 42.9678 59.4732 43.5277 59.1487C43.7046 59.0471 43.8509 58.8995 43.9525 58.7239L47.6887 52.2468C48.0119 51.6873 47.82 50.9702 47.2601 50.6474C47.0807 50.5441 46.877 50.4889 46.6696 50.4901H44.1047V11.4895H46.6813ZM44.6554 52.8326L42.9456 55.7956L41.2354 52.8326H44.6554ZM41.2354 9.14702L42.9456 6.18402L44.6554 9.14702H41.2354Z" fill="#790E30"/>
</svg>
