<svg width="70" height="62" viewBox="0 0 70 62" fill="none" xmlns="http://www.w3.org/2000/svg">
<path d="M33.8187 23.6402C34.2748 24.0238 35.0332 23.9463 35.3798 23.4832L42.2045 14.3605C42.5175 13.9423 42.3882 13.3785 41.9161 13.1013C41.4445 12.8246 40.808 12.939 40.495 13.3567L34.3448 21.5778L30.9274 18.7038C30.5167 18.3584 29.8678 18.3736 29.4774 18.7373C29.0875 19.1011 29.1046 19.6758 29.5153 20.0211C29.5148 20.0211 33.815 23.6374 33.8187 23.6402Z" fill="#790E30"/>
<path d="M34.5182 37.4927C34.7142 37.5722 34.9311 37.6143 35.1468 37.6143H35.1554C35.3749 37.6133 35.5949 37.5689 35.7914 37.4856C51.3838 30.9177 54.0263 16.7469 54.4642 12.5602C54.5646 11.6042 53.9569 10.714 52.9523 10.345C49.8484 9.2036 47.7383 6.65117 47.4456 3.6839C47.3554 2.77049 46.4742 2.05859 45.436 2.05859H45.4237L24.4171 2.16786C23.358 2.17307 22.4977 2.88591 22.4165 3.82581C22.158 6.79402 20.0789 9.3649 16.9905 10.5352C15.996 10.9117 15.4032 11.8066 15.5165 12.7621C16.0099 16.9441 18.8399 31.087 34.5182 37.4927ZM17.7969 12.2049C21.5839 10.7707 24.1351 7.62181 24.4593 3.9838L45.4055 3.875C45.7778 7.50498 48.3653 10.625 52.1662 12.0223C52.336 12.0853 52.4391 12.2338 52.4225 12.3927C52.0113 16.3164 49.5509 29.5464 35.1431 35.7463C20.6525 29.6973 18.0191 16.4929 17.5555 12.5734C17.5368 12.4149 17.634 12.2669 17.7969 12.2049Z" fill="#790E30"/>
<path d="M20.3574 17.2397C20.4813 17.6437 21.0597 18.0136 21.6162 17.8778C22.162 17.7444 22.4851 17.2473 22.3367 16.7634C22.0755 15.911 21.856 15.0468 21.6835 14.1906C24.4691 12.5828 26.5365 10.1832 27.5507 7.38051L42.359 7.30341C43.41 10.0947 45.5089 12.4735 48.3159 14.052C48.1551 14.9106 47.9469 15.7776 47.6964 16.6333C47.5543 17.1191 47.8838 17.6148 48.4318 17.7407C48.9808 17.8665 49.5399 17.5746 49.682 17.0888C49.9757 16.0841 50.215 15.0643 50.3923 14.0577C50.4916 13.4953 50.2011 12.9423 49.6532 12.649C47.0384 11.2503 45.1057 9.05596 44.2111 6.47041C44.0098 5.88907 43.3908 5.48511 42.704 5.48511H42.6944L27.1907 5.56552C26.4996 5.56931 25.8812 5.98131 25.6873 6.56691C24.8275 9.16144 22.9236 11.3757 20.3275 12.8018C19.7833 13.1003 19.5008 13.6561 19.6071 14.2181C19.7983 15.2223 20.0504 16.2388 20.3574 17.2397Z" fill="#790E30"/>
<path d="M47.609 19.9328C47.0856 19.7407 46.4864 19.9621 46.2701 20.4256C43.9005 25.5125 40.1493 29.38 35.1174 31.9253C30.0465 29.4291 26.2408 25.5944 23.8044 20.5236C23.5823 20.0624 22.9798 19.8476 22.4591 20.0439C21.9379 20.2402 21.6954 20.7738 21.9171 21.235C24.5761 26.7684 28.7653 30.94 34.3681 33.6329C34.6041 33.7469 34.8626 33.8032 35.1206 33.8032C35.3849 33.8032 35.6488 33.7441 35.8891 33.6253C41.4497 30.8775 45.5801 26.6695 48.166 21.1181C48.3823 20.6546 48.1329 20.1239 47.609 19.9328Z" fill="#790E30"/>
<path d="M6.57903 48.5311C4.57898 48.5311 2.95117 49.9724 2.95117 51.7444C2.95117 53.5163 4.57898 54.9576 6.57903 54.9576C8.57961 54.9576 10.2074 53.5163 10.2074 51.7444C10.2074 49.9724 8.58014 48.5311 6.57903 48.5311ZM6.57903 53.1412C5.70958 53.1412 5.00195 52.5149 5.00195 51.7444C5.00195 50.9743 5.70958 50.3475 6.57903 50.3475C7.44901 50.3475 8.15663 50.9743 8.15663 51.7444C8.15663 52.5149 7.44901 53.1412 6.57903 53.1412Z" fill="#790E30"/>
<path d="M69.2646 39.6397C67.9503 37.9292 65.304 37.4761 63.3659 38.6293L49.9611 46.5756L47.0996 46.4332L47.0264 45.7843C46.7412 43.2427 44.5479 41.2177 41.6928 40.8601C41.6746 40.8577 41.657 40.8558 41.6389 40.8544L27.1947 39.7334C26.7061 39.6657 25.1418 39.2679 20.8437 37.0844C18.6098 35.9496 16.0928 35.3092 13.5357 35.2221V32.8461C13.5357 31.6537 12.4409 30.684 11.0945 30.684H2.44118C1.09535 30.684 0 31.6541 0 32.8461V56.247C0 57.4391 1.09535 58.4092 2.44118 58.4092H11.0945C12.4403 58.4092 13.5357 57.4391 13.5357 56.247V55.6023L26.1619 59.8373C26.1896 59.8467 27.215 60.1864 29.1003 60.0289C29.1056 60.0284 50.0796 57.3501 50.0796 57.3501C50.085 57.3497 50.0898 57.3487 50.0951 57.3478C51.8874 57.0947 53.5777 56.4235 54.9839 55.4079C54.9967 55.3984 55.009 55.389 55.0213 55.3795L68.5708 44.5856C70.1677 43.3297 70.4662 41.2035 69.2646 39.6397ZM67.2042 43.2314L53.669 54.0139C52.5486 54.8185 51.2038 55.3507 49.779 55.5531L28.8151 58.23C28.8103 58.2304 28.8033 58.2314 28.7969 58.2323C28.7937 58.2328 28.79 58.2333 28.7868 58.2337C28.1598 58.3212 27.5066 58.2844 26.8449 58.124L13.5357 53.6601V43.2881C13.5357 42.7862 13.0764 42.3799 12.5103 42.3799C11.9437 42.3799 11.4849 42.7862 11.4849 43.2881V56.247C11.4849 56.4377 11.3097 56.5928 11.0945 56.5928H2.44118C2.22595 56.5928 2.05078 56.4377 2.05078 56.247V32.8461C2.05078 32.6555 2.22595 32.5004 2.44118 32.5004H11.0945C11.3097 32.5004 11.4849 32.6555 11.4849 32.8461V39.1856C11.4849 39.6875 11.9442 40.0938 12.5103 40.0938C13.0769 40.0938 13.5357 39.687 13.5357 39.1856V37.0404C15.7355 37.1265 17.8995 37.6828 19.8231 38.6605C25.0072 41.2939 26.4551 41.4755 26.9309 41.5351C26.9491 41.5375 26.9667 41.5389 26.9849 41.5408L41.4306 42.6618C43.335 42.9111 44.7951 44.2659 44.9858 45.964L45.0403 46.4479L25.7004 47.5056C25.6871 47.5046 25.6737 47.5037 25.662 47.5027C25.035 47.4526 24.4689 47.1901 24.0668 46.7634C23.7041 46.3779 23.0574 46.3259 22.6227 46.6475C22.1874 46.9687 22.1287 47.5415 22.4918 47.9266C23.2443 48.726 24.306 49.2042 25.4793 49.3121C26.1127 49.3707 46.1682 48.2061 46.1682 48.2061L50.1886 48.4062C50.4108 48.4176 50.6313 48.3636 50.8161 48.2539L64.5083 40.1378C65.5139 39.5394 66.887 39.774 67.569 40.6614C68.1922 41.4731 68.0373 42.5762 67.2042 43.2314Z" fill="#790E30"/>
</svg>
