<svg width="20" height="20" viewBox="0 0 30 30" fill="none" xmlns="http://www.w3.org/2000/svg">
<g clip-path="url(#clip0)">
<path d="M29.7326 21.7088C29.652 21.5738 29.1532 20.49 26.753 18.2623C24.2404 15.9296 24.5779 16.3084 27.6044 12.275C29.4476 9.81857 30.1845 8.31846 29.9539 7.67716C29.7345 7.06586 28.3788 7.22713 28.3788 7.22713L23.8709 7.25338C23.8709 7.25338 23.5372 7.20838 23.2878 7.35651C23.0459 7.50277 22.8903 7.8403 22.8903 7.8403C22.8903 7.8403 22.1758 9.74169 21.2233 11.3581C19.215 14.7689 18.4105 14.949 18.0824 14.7371C17.3192 14.2439 17.5105 12.7532 17.5105 11.6956C17.5105 8.38971 18.0111 7.01149 16.5335 6.65521C16.0422 6.53708 15.6822 6.45832 14.4277 6.44519C12.8189 6.42832 11.4556 6.45082 10.685 6.82772C10.1712 7.07899 9.77552 7.63966 10.0174 7.67154C10.3156 7.71091 10.9906 7.85342 11.3488 8.34096C11.8119 8.96913 11.795 10.383 11.795 10.383C11.795 10.383 12.0613 14.2739 11.1744 14.7577C10.565 15.0896 9.73052 14.4127 7.93976 11.3168C7.02282 9.73231 6.32902 7.97906 6.32902 7.97906C6.32902 7.97906 6.19588 7.65278 5.95774 7.4784C5.66897 7.2665 5.26394 7.199 5.26394 7.199L0.977367 7.22525C0.977367 7.22525 0.334193 7.244 0.0979259 7.5234C-0.11209 7.77279 0.0810496 8.28658 0.0810496 8.28658C0.0810496 8.28658 3.43755 16.1378 7.23658 20.0962C10.7225 23.7246 14.679 23.4865 14.679 23.4865H16.4716C16.4716 23.4865 17.0136 23.4265 17.2892 23.1283C17.5442 22.8545 17.5349 22.3408 17.5349 22.3408C17.5349 22.3408 17.4992 19.9349 18.6168 19.5805C19.7175 19.2318 21.1314 21.9057 22.6296 22.9352C23.7622 23.7134 24.6229 23.5427 24.6229 23.5427L28.6301 23.4865C28.6301 23.4865 30.7265 23.3571 29.7326 21.7088Z" fill="#9C2449"/>
</g>
<defs>
<clipPath id="clip0">
<rect width="30" height="30" fill="white"/>
</clipPath>
</defs>
</svg>
